<svg width="256" height="256" viewBox="0 0 256 256" fill="none" xmlns="http://www.w3.org/2000/svg" role="img" aria-labelledby="title desc">
  <title id="title">Memo List Icon</title>
  <desc id="desc">Rounded memo sheet with list lines and a pencil check mark.</desc>

  <rect x="0" y="0" width="256" height="256" rx="0" fill="#667eea"/>
  <rect x="58" y="44" width="140" height="168" rx="18" fill="#FFFFFF"/>

  <rect x="78" y="84" width="76" height="10" rx="5" fill="#A5B4FC"/>
  <rect x="78" y="110" width="92" height="10" rx="5" fill="#A5B4FC"/>
  <rect x="78" y="136" width="64" height="10" rx="5" fill="#A5B4FC"/>

  <circle cx="66" cy="89" r="4" fill="#6366F1"/>
  <circle cx="66" cy="115" r="4" fill="#6366F1"/>
  <circle cx="66" cy="141" r="4" fill="#6366F1"/>

  <path d="M112 176L96 160C92.9 156.9 92.9 151.8 96 148.7C99.1 145.6 104.2 145.6 107.3 148.7L116.8 158.2L148.7 126.3C151.8 123.2 156.9 123.2 160 126.3C163.1 129.4 163.1 134.5 160 137.6L122.5 175.1C119.4 178.2 114.3 178.2 111.2 175.1L112 176Z" fill="#14B8A6"/>

  <rect x="58" y="44" width="140" height="168" rx="18" stroke="#C7D2FE" stroke-width="2"/>
</svg>
